<svg id="Layer_1" data-name="Layer 1" xmlns="http://www.w3.org/2000/svg" viewBox="0 0 887 208.14"><defs><style>.cls-1{fill:#fff;}</style></defs><polygon class="cls-1" points="52.78 142.37 52.78 0.32 0 0.32 0 142.37 41.95 142.37 52.78 142.37"/><polygon class="cls-1" points="42.29 153.68 41.95 153.68 0 153.68 0 208.14 52.78 208.14 52.78 153.68 42.29 153.68"/><polygon class="cls-1" points="63.4 53.09 154.99 53.09 154.99 208.14 186.87 208.14 186.87 104.66 175.89 104.66 175.89 197.32 165.82 197.32 165.82 42.27 74.23 42.27 74.23 11.14 288.53 11.14 288.53 42.27 196.94 42.27 196.94 208.14 207.76 208.14 207.76 53.09 299.35 53.09 299.35 0.32 63.4 0.32 63.4 53.09"/><polygon class="cls-1" points="516.89 155.37 404.42 155.37 362.06 113.01 362.06 0.31 351.24 0.31 351.24 117.43 400 166.19 527.87 166.19 527.87 11.14 558.84 11.14 558.84 197.32 387.06 197.32 320.11 130.37 320.11 11.14 330.03 11.14 330.03 102.73 340.86 102.73 340.86 0.31 309.28 0.31 309.28 134.79 382.63 208.14 569.82 208.14 569.82 0.31 516.89 0.31 516.89 155.37"/><polygon class="cls-1" points="813.29 0 734.68 144.68 655.76 0 582.52 0.48 582.52 208.14 593.34 208.14 593.34 11.28 649.33 10.84 734.84 167.35 819.73 10.84 876.17 11.28 876.17 197.32 845.05 197.32 845.05 46.11 835.88 46.11 753.82 197.32 715.68 197.32 631.63 46.11 624.47 46.11 624.47 197.32 614.7 197.32 614.7 104.04 603.72 104.04 603.72 208.14 635.29 208.14 635.29 72.69 709.26 208.14 760.26 208.14 834.23 71.95 834.23 208.14 887 208.14 887 0.48 813.29 0"/></svg>